# xmcd
#
# Track frame offsets:
# 150
# 16960
# 33220
# 50365
# 68022
# 89425
# 115640
# 133410
# 153610
# 176707
# 196775
# 215375
# 229647
# 244992
#
# Disc length: 3543 seconds
#
#
# Revision: 0
# Processed by: cddbd v1.5.1PL2 Copyright (c) Steve Scherf et al.
# Submitted via: FreeRIP 2.51 
#
DISCID=ba0dd50e
DTITLE=Big Boy Henry - Poor Man's Blues
DYEAR=1900
DGENRE=Blues
TTITLE0=Rattlesnakin' Mama
TTITLE1=Miss Lucy Grey
TTITLE2=Beautiful City
TTITLE3=Oh Red
TTITLE4=Rocky Mountain-05
TTITLE5=Let Me Go Home Gin
TTITLE6=Shake That Thing
TTITLE7=Poor Man's Blues
TTITLE8=Black Rat Swing
TTITLE9=Lookin' For Me At Midnight
TTITLE10=I'm Mad
TTITLE11=Main Street Woman
TTITLE12=Pat That Thing
TTITLE13=How Long
EXTD=
EXTT0=
EXTT1=
EXTT2=
EXTT3=
EXTT4=
EXTT5=
EXTT6=
EXTT7=
EXTT8=
EXTT9=
EXTT10=
EXTT11=
EXTT12=
EXTT13=
PLAYORDER=
